REM DIRINDEX 1\2\5,1\2\6,1\2\7,1\2\8,1\3\9,1\3\10,1\3\11,1\4\12,1\4\13,1\4\14,1\4\15,1\4\16
REM DIRNAME folder01,folder02,folder03,folder04,folder05,folder06,folder07,folder08,folder09,folder10,folder11,folder12,folder13,folder14,folder15,folder16
TITLE ""
FILE "1200_2_sec03_0819_0836.mp3" MP3
  TRACK 01 AUDIO
    TITLE "0:"
    INDEX 01 00:00:00
  TRACK 02 AUDIO
    TITLE "10:cjc034_01684"
    INDEX 01 00:00:17
  TRACK 03 AUDIO
    TITLE "0:"
    INDEX 01 00:01:34
  TRACK 04 AUDIO
    TITLE "9:cjc034_01685"
    INDEX 01 00:01:38
  TRACK 05 AUDIO
    TITLE "0:"
    INDEX 01 00:02:51
  TRACK 06 AUDIO
    TITLE "11:cjc034_01686"
    INDEX 01 00:04:27
  TRACK 07 AUDIO
    TITLE "0:"
    INDEX 01 00:09:55
  TRACK 08 AUDIO
    TITLE "10:cjc034_01687"
    INDEX 01 00:10:59
  TRACK 09 AUDIO
    TITLE "0:"
    INDEX 01 00:11:66
  TRACK 10 AUDIO
    TITLE "9:cjc034_01688"
    INDEX 01 00:11:70
  TRACK 11 AUDIO
    TITLE "0:"
    INDEX 01 00:13:12
  TRACK 12 AUDIO
    TITLE "10:cjc034_01689"
    INDEX 01 00:13:69
  TRACK 13 AUDIO
    TITLE "0:"
    INDEX 01 00:15:64
  TRACK 14 AUDIO
    TITLE "9:cjc034_01690"
    INDEX 01 00:15:66
  TRACK 15 AUDIO
    TITLE "0:"
    INDEX 01 00:17:18
  TRACK 16 AUDIO
    TITLE "10:cjc034_01691"
    INDEX 01 00:18:03
  TRACK 17 AUDIO
    TITLE "0:"
    INDEX 01 00:18:66
  TRACK 18 AUDIO
    TITLE "9:cjc034_01692"
    INDEX 01 00:18:70
  TRACK 19 AUDIO
    TITLE "0:"
    INDEX 01 00:20:02
  TRACK 20 AUDIO
    TITLE "10:cjc034_01693"
    INDEX 01 00:20:59
  TRACK 21 AUDIO
    TITLE "0:"
    INDEX 01 00:21:72
  TRACK 22 AUDIO
    TITLE "9:cjc034_01694"
    INDEX 01 00:22:07
  TRACK 23 AUDIO
    TITLE "0:"
    INDEX 01 00:23:10
  TRACK 24 AUDIO
    TITLE "10:cjc034_01695"
    INDEX 01 00:23:71
  TRACK 25 AUDIO
    TITLE "0:"
    INDEX 01 00:24:69
  TRACK 26 AUDIO
    TITLE "9:cjc034_01696"
    INDEX 01 00:24:74
  TRACK 27 AUDIO
    TITLE "0:"
    INDEX 01 00:26:20
  TRACK 28 AUDIO
    TITLE "10:cjc034_01697"
    INDEX 01 00:27:02
  TRACK 29 AUDIO
    TITLE "0:"
    INDEX 01 00:29:29
  TRACK 30 AUDIO
    TITLE "9:cjc034_01698"
    INDEX 01 00:29:40
  TRACK 31 AUDIO
    TITLE "0:"
    INDEX 01 00:30:48
  TRACK 32 AUDIO
    TITLE "10:cjc034_01699"
    INDEX 01 00:31:33
  TRACK 33 AUDIO
    TITLE "0:"
    INDEX 01 00:32:21
  TRACK 34 AUDIO
    TITLE "9:cjc034_01700"
    INDEX 01 00:32:31
  TRACK 35 AUDIO
    TITLE "0:"
    INDEX 01 00:33:32
  TRACK 36 AUDIO
    TITLE "10:cjc034_01701"
    INDEX 01 00:34:14
  TRACK 37 AUDIO
    TITLE "0:"
    INDEX 01 00:35:06
  TRACK 38 AUDIO
    TITLE "9:cjc034_01702"
    INDEX 01 00:35:14
  TRACK 39 AUDIO
    TITLE "0:"
    INDEX 01 00:36:15
  TRACK 40 AUDIO
    TITLE "10:cjc034_01703"
    INDEX 01 00:36:74
  TRACK 41 AUDIO
    TITLE "0:"
    INDEX 01 00:38:12
  TRACK 42 AUDIO
    TITLE "9:cjc034_01704"
    INDEX 01 00:38:22
  TRACK 43 AUDIO
    TITLE "0:"
    INDEX 01 00:39:45
  TRACK 44 AUDIO
    TITLE "10:cjc034_01705"
    INDEX 01 00:40:34
  TRACK 45 AUDIO
    TITLE "0:"
    INDEX 01 00:41:55
  TRACK 46 AUDIO
    TITLE "9:cjc034_01706"
    INDEX 01 00:41:63
  TRACK 47 AUDIO
    TITLE "0:"
    INDEX 01 00:43:15
  TRACK 48 AUDIO
    TITLE "11:cjc034_01707"
    INDEX 01 00:44:71
  TRACK 49 AUDIO
    TITLE "0:"
    INDEX 01 00:49:57
  TRACK 50 AUDIO
    TITLE "10:cjc034_01708"
    INDEX 01 00:50:60
  TRACK 51 AUDIO
    TITLE "0:"
    INDEX 01 00:52:00
  TRACK 52 AUDIO
    TITLE "9:cjc034_01709"
    INDEX 01 00:52:04
  TRACK 53 AUDIO
    TITLE "0:"
    INDEX 01 00:53:27
  TRACK 54 AUDIO
    TITLE "10:cjc034_01710"
    INDEX 01 00:54:09
  TRACK 55 AUDIO
    TITLE "0:"
    INDEX 01 00:55:20
  TRACK 56 AUDIO
    TITLE "9:cjc034_01711"
    INDEX 01 00:55:22
  TRACK 57 AUDIO
    TITLE "0:"
    INDEX 01 00:56:39
  TRACK 58 AUDIO
    TITLE "10:cjc034_01712"
    INDEX 01 00:57:19
  TRACK 59 AUDIO
    TITLE "0:"
    INDEX 01 00:58:15
  TRACK 60 AUDIO
    TITLE "9:cjc034_01713"
    INDEX 01 00:58:20
  TRACK 61 AUDIO
    TITLE "0:"
    INDEX 01 00:59:30
  TRACK 62 AUDIO
    TITLE "10:cjc034_01714"
    INDEX 01 01:00:15
  TRACK 63 AUDIO
    TITLE "0:"
    INDEX 01 01:01:11
  TRACK 64 AUDIO
    TITLE "9:cjc034_01715"
    INDEX 01 01:01:17
  TRACK 65 AUDIO
    TITLE "0:"
    INDEX 01 01:02:24
  TRACK 66 AUDIO
    TITLE "10:cjc034_01716"
    INDEX 01 01:03:10
  TRACK 67 AUDIO
    TITLE "0:"
    INDEX 01 01:04:33
  TRACK 68 AUDIO
    TITLE "9:cjc034_01717"
    INDEX 01 01:04:41
  TRACK 69 AUDIO
    TITLE "0:"
    INDEX 01 01:05:42
  TRACK 70 AUDIO
    TITLE "10:cjc034_01718"
    INDEX 01 01:06:26
  TRACK 71 AUDIO
    TITLE "0:"
    INDEX 01 01:07:33
  TRACK 72 AUDIO
    TITLE "9:cjc034_01719"
    INDEX 01 01:07:37
  TRACK 73 AUDIO
    TITLE "0:"
    INDEX 01 01:08:38
  TRACK 74 AUDIO
    TITLE "10:cjc034_01720"
    INDEX 01 01:09:26
  TRACK 75 AUDIO
    TITLE "0:"
    INDEX 01 01:10:12
  TRACK 76 AUDIO
    TITLE "9:cjc034_01721"
    INDEX 01 01:10:22
  TRACK 77 AUDIO
    TITLE "0:"
    INDEX 01 01:11:19
